<svg xmlns="http://www.w3.org/2000/svg" viewBox="0 0 800 367" width="800" height="367">
  <style>@import url('https://fonts.googleapis.com/css2?family=Plus+Jakarta+Sans:wght@700;800');</style>
  <g transform="translate(250, 0) scale(0.5769)"><path d="M0 0 C0.928 0.722 1.856 1.444 2.812 2.188 C14.548 11.522 24.076 22.044 33 34 C33.637 34.842 34.274 35.684 34.93 36.551 C43.456 48.24 56.043 65.934 54 81 C52.595 87.53 49.557 91.355 44 95 C38.92 97.54 34.388 97.386 29 96 C20.415 92.151 16.819 85.534 12.562 77.5 C11.268 75.147 9.956 72.804 8.645 70.461 C8.332 69.901 8.332 69.901 6.752 67.065 C-11.682 34.819 -41.767 14.746 -77 5 C-112.174 -4.094 -149.986 2.748 -181.01 20.801 C-185.601 23.567 -189.843 26.622 -194 30 C-194.256 30.204 -194.256 30.204 -195.552 31.237 C-223.104 53.276 -241.708 85.258 -246.317 120.418 C-250.337 157.361 -241.302 193.877 -218.331 223.354 C-213.582 229.228 -208.575 234.98 -202.672 239.715 C-202.231 240.092 -202.231 240.092 -200 242 C-200 242.66 -200 243.32 -200 244 C-198.688 244.708 -197.349 245.366 -196 246 C-194.505 247.019 -193.027 248.063 -191.562 249.125 C-175.078 260.681 -157.796 268.835 -138 273 C-137.173 273.175 -136.346 273.35 -135.494 273.531 C-126.654 275.219 -117.901 275.399 -108.938 275.375 C-108.164 275.374 -107.39 275.374 -106.593 275.373 C-94.639 275.335 -83.476 274.591 -72 271 C-71.652 270.898 -71.652 270.898 -69.892 270.383 C-52.551 265.24 -36.777 256.674 -23 245 C-22.376 244.48 -21.753 243.96 -21.11 243.425 C-9.283 233.565 -9.283 233.565 -8 231 C-7.34 231 -6.68 231 -6 231 C-5.322 229.672 -4.659 228.337 -4 227 C-2.903 225.587 -1.803 224.176 -0.675 222.789 C6.828 213.544 12.273 203.568 16.625 192.5 C18.929 186.812 21.433 182.024 26.914 178.914 C32.725 176.469 38.112 176.217 44.125 178.188 C49.334 180.354 52.147 183.411 54.812 188.375 C58.024 198.179 53.642 205.858 49.266 214.586 C48.268 216.519 47.262 218.449 46.25 220.375 C45.719 221.387 45.187 222.399 44.639 223.442 C38.53 234.941 31.494 245.107 23 255 C22.279 255.844 21.559 256.689 20.816 257.559 C-7.57 289.992 -49.829 311.899 -93 315 C-98.459 315.192 -103.913 315.246 -109.375 315.25 C-109.754 315.25 -109.754 315.25 -111.673 315.252 C-123.375 315.236 -134.563 314.653 -146 312 C-146.746 311.839 -147.492 311.678 -148.261 311.512 C-177.981 305.015 -203.932 290.511 -227 271 C-227.369 270.698 -227.369 270.698 -229.238 269.172 C-230.866 267.828 -232.44 266.421 -234 265 C-234 264.34 -234 263.68 -234 263 C-234.99 262.67 -235.98 262.34 -237 262 C-239.547 259.532 -241.733 256.725 -244 254 C-244.347 253.596 -244.347 253.596 -246.105 251.551 C-272.972 219.739 -286.539 180.406 -286.312 138.812 C-286.311 138.453 -286.311 138.453 -286.306 136.635 C-286.213 117.129 -283 99.545 -277 81 C-276.885 80.642 -276.885 80.642 -276.301 78.829 C-269.211 57.315 -257.266 37.194 -241.645 20.785 C-240 19 -240 19 -239 17 C-238.34 17 -237.68 17 -237 17 C-236.691 16.361 -236.381 15.721 -236.062 15.062 C-235 13 -235 13 -232 12 C-232 11.34 -232 10.68 -232 10 C-229.032 7.24 -225.81 4.789 -222.625 2.285 C-221.05 1.039 -219.493 -0.23 -217.938 -1.5 C-210.402 -7.579 -202.488 -12.461 -193.932 -16.977 C-192.147 -17.922 -190.377 -18.895 -188.609 -19.871 C-173.191 -28.074 -156.129 -32.897 -139 -36 C-137.77 -36.226 -136.54 -36.451 -135.273 -36.684 C-87.343 -43.999 -37.868 -29.811 0 0 Z " fill="#26438E" transform="translate(321,78)"/><path d="M0 0 C5.052 3.883 7.201 8.825 8.133 14.957 C8.228 17.866 8.272 20.751 8.267 23.66 C8.269 24.536 8.271 25.412 8.273 26.314 C8.28 29.249 8.279 32.183 8.278 35.118 C8.281 37.222 8.284 39.327 8.288 41.431 C8.297 47.148 8.299 52.865 8.3 58.582 C8.301 63.356 8.305 68.13 8.308 72.904 C8.316 84.168 8.319 95.433 8.318 106.698 C8.318 118.313 8.328 129.929 8.344 141.545 C8.357 151.52 8.362 161.496 8.362 171.472 C8.361 177.428 8.364 183.385 8.375 189.341 C8.385 194.946 8.385 200.55 8.377 206.154 C8.376 208.208 8.379 210.262 8.385 212.316 C8.392 215.126 8.388 217.936 8.38 220.746 C8.385 221.553 8.39 222.36 8.396 223.191 C8.347 231.274 7.365 238.529 2.133 244.957 C-2.217 248.882 -5.591 250.382 -11.539 250.305 C-17.118 249.472 -22.348 246.799 -25.93 242.457 C-28.014 236.899 -28.028 231.537 -28.078 225.676 C-28.106 223.846 -28.135 222.017 -28.164 220.188 C-28.205 217.317 -28.242 214.447 -28.269 211.577 C-28.296 208.797 -28.342 206.018 -28.391 203.238 C-28.394 202.383 -28.397 201.528 -28.4 200.646 C-28.497 195.95 -28.801 192.757 -31.867 188.957 C-34.355 187.438 -34.355 187.438 -37.18 186.145 C-43.558 182.862 -47.219 179.013 -49.919 172.368 C-51.07 168.228 -51.163 164.522 -51.158 160.249 C-51.164 159.394 -51.171 158.54 -51.178 157.659 C-51.197 154.846 -51.201 152.032 -51.203 149.219 C-51.21 147.253 -51.216 145.288 -51.223 143.323 C-51.235 139.207 -51.239 135.09 -51.238 130.974 C-51.238 125.715 -51.265 120.457 -51.299 115.198 C-51.322 111.139 -51.326 107.08 -51.325 103.021 C-51.327 101.084 -51.336 99.146 -51.351 97.208 C-51.371 94.489 -51.365 91.772 -51.353 89.053 C-51.364 88.263 -51.376 87.473 -51.387 86.658 C-51.312 79.916 -49.358 73.951 -45.008 68.723 C-44.384 68.222 -43.76 67.722 -43.117 67.207 C-42.773 66.928 -42.773 66.928 -41.031 65.516 C-38.301 63.549 -35.482 61.812 -32.531 60.195 C-30.454 58.65 -29.862 57.337 -28.867 54.957 C-28.609 52.935 -28.609 52.935 -28.596 50.774 C-28.586 49.96 -28.576 49.145 -28.565 48.305 C-28.563 47.433 -28.561 46.56 -28.559 45.66 C-28.533 43.796 -28.508 41.931 -28.482 40.066 C-28.454 37.139 -28.43 34.212 -28.411 31.285 C-28.389 28.452 -28.35 25.619 -28.309 22.785 C-28.308 21.92 -28.308 21.055 -28.308 20.164 C-28.2 13.459 -27.169 6.492 -22.117 1.582 C-15.725 -4.152 -7.34 -4.1 0 0 Z " fill="#25428E" transform="translate(435.8671875,93.04296875)"/><path d="M0 0 C4.711 2.094 6.955 4.777 9.168 9.412 C10.953 14.966 10.547 20.836 10.508 26.613 C10.513 28.103 10.519 29.594 10.527 31.084 C10.544 35.166 10.535 39.249 10.523 43.331 C10.514 47.739 10.528 52.147 10.539 56.554 C10.557 65.184 10.553 73.814 10.541 82.443 C10.532 89.457 10.531 96.471 10.535 103.485 C10.536 104.484 10.536 105.482 10.537 106.511 C10.538 108.54 10.54 110.568 10.541 112.597 C10.552 131.615 10.539 150.633 10.518 169.651 C10.5 185.968 10.503 202.284 10.521 218.6 C10.543 237.551 10.551 256.501 10.539 275.452 C10.538 277.473 10.537 279.494 10.535 281.515 C10.535 282.509 10.534 283.504 10.533 284.528 C10.53 291.533 10.536 298.538 10.545 305.543 C10.556 314.08 10.553 322.618 10.532 331.155 C10.522 335.511 10.517 339.866 10.531 344.221 C10.543 348.21 10.536 352.198 10.515 356.187 C10.51 357.628 10.513 359.069 10.522 360.511 C10.58 369.744 10.245 376.401 3.75 383.438 C0.217 385.445 -2.979 386.191 -7 386 C-12.216 384.435 -15.055 382.581 -18 378 C-19.855 374.126 -20.252 371.049 -20.257 366.769 C-20.264 365.507 -20.27 364.244 -20.277 362.943 C-20.274 361.545 -20.271 360.146 -20.267 358.748 C-20.271 357.26 -20.276 355.772 -20.281 354.285 C-20.293 350.195 -20.293 346.106 -20.291 342.017 C-20.29 337.607 -20.301 333.197 -20.311 328.788 C-20.328 320.147 -20.333 311.507 -20.334 302.867 C-20.335 295.845 -20.339 288.822 -20.346 281.799 C-20.363 261.893 -20.372 241.986 -20.371 222.079 C-20.371 221.006 -20.371 219.932 -20.371 218.826 C-20.371 217.752 -20.37 216.677 -20.37 215.57 C-20.37 198.151 -20.389 180.733 -20.417 163.315 C-20.446 145.433 -20.459 127.552 -20.458 109.67 C-20.457 99.63 -20.463 89.589 -20.484 79.549 C-20.502 71 -20.507 62.452 -20.493 53.903 C-20.486 49.542 -20.486 45.18 -20.504 40.819 C-20.519 36.825 -20.517 32.831 -20.499 28.837 C-20.496 27.393 -20.5 25.95 -20.511 24.506 C-20.568 16.591 -20.415 10.709 -16 4 C-11.199 -0.572 -6.332 -0.99 0 0 Z " fill="#24408C" transform="translate(474,24)"/><path d="M0 0 C0.33 0.165 0.33 0.165 2 1 C-3.667 11.038 -9.549 20.923 -15.573 30.75 C-20.263 38.408 -24.822 46.123 -29.254 53.933 C-31.206 57.361 -33.209 60.749 -35.25 64.125 C-35.995 65.361 -36.74 66.596 -37.484 67.832 C-37.682 68.159 -37.682 68.159 -38.682 69.815 C-41.294 74.144 -43.897 78.478 -46.5 82.812 C-47.029 83.691 -47.558 84.57 -48.103 85.475 C-48.595 86.294 -49.087 87.113 -49.594 87.957 C-49.814 88.323 -49.814 88.323 -50.928 90.175 C-51.662 91.425 -52.352 92.703 -53 94 C-49.418 94.735 -45.834 95.463 -42.25 96.188 C-41.146 96.411 -40.043 96.634 -38.906 96.865 C-32.675 98.111 -26.438 99.29 -20.176 100.375 C-19.54 100.485 -19.54 100.485 -16.325 101.042 C-13.84 101.468 -11.354 101.888 -8.866 102.3 C-7.736 102.493 -6.606 102.687 -5.441 102.887 C-4.438 103.054 -3.434 103.221 -2.401 103.393 C0 104 0 104 2 106 C-5.11 111.865 -12.494 117.271 -20.014 122.589 C-23.608 125.142 -27.178 127.729 -30.75 130.312 C-31.129 130.586 -31.129 130.586 -33.045 131.971 C-34.592 133.09 -36.139 134.208 -37.686 135.327 C-40.709 137.513 -43.734 139.697 -46.759 141.881 C-48.256 142.963 -49.754 144.045 -51.251 145.126 C-54.987 147.825 -58.724 150.522 -62.465 153.215 C-72.687 160.578 -82.843 168.028 -92.979 175.509 C-100.724 181.222 -108.547 186.816 -116.428 192.339 C-120.11 194.927 -123.757 197.548 -127.355 200.25 C-128.043 200.765 -128.73 201.279 -129.438 201.809 C-130.749 202.795 -132.055 203.787 -133.354 204.786 C-134.86 205.917 -136.425 206.968 -138 208 C-138.66 207.67 -139.32 207.34 -140 207 C-137.961 203.374 -135.918 199.749 -133.875 196.125 C-133.305 195.112 -132.735 194.099 -132.148 193.055 C-128.96 187.402 -125.714 181.794 -122.339 176.25 C-120.38 172.959 -118.57 169.592 -116.75 166.223 C-114.184 161.498 -111.567 156.803 -108.952 152.105 C-106.802 148.243 -104.655 144.378 -102.52 140.508 C-97.621 131.64 -92.629 122.835 -87.49 114.104 C-87.049 113.349 -86.607 112.594 -86.152 111.816 C-85.76 111.151 -85.368 110.485 -84.965 109.799 C-84 108 -84 108 -83 105 C-84.203 104.841 -85.405 104.683 -86.645 104.52 C-101.525 102.502 -116.255 99.828 -131 97 C-129.892 93.675 -129.348 93.255 -126.598 91.32 C-125.881 90.81 -125.165 90.3 -124.427 89.775 C-123.647 89.23 -122.866 88.686 -122.062 88.125 C-120.413 86.955 -118.763 85.784 -117.113 84.613 C-116.265 84.015 -115.416 83.416 -114.542 82.799 C-110.589 80.001 -106.671 77.155 -102.75 74.312 C-97.535 70.542 -92.308 66.791 -87.062 63.062 C-81.496 59.103 -75.993 55.06 -70.5 51 C-64.457 46.534 -58.393 42.105 -52.269 37.751 C-47.58 34.418 -42.912 31.058 -38.25 27.688 C-37.874 27.415 -37.874 27.415 -35.968 26.038 C-34.427 24.924 -32.886 23.81 -31.345 22.695 C-28.977 20.983 -26.608 19.273 -24.238 17.562 C-23.461 17.001 -22.683 16.44 -21.882 15.861 C-20.353 14.758 -18.824 13.656 -17.294 12.555 C-14.007 10.187 -10.731 7.81 -7.496 5.371 C-7.002 5 -7.002 5 -4.5 3.125 C-3.665 2.488 -2.829 1.851 -1.969 1.195 C-1.319 0.801 -0.669 0.406 0 0 Z " fill="#357F97" transform="translate(291,116)"/><path d="M0 0 C9.195 0.988 18.282 2.313 27.375 4 C27.836 4.083 27.836 4.083 30.167 4.503 C31.027 4.667 31.887 4.831 32.773 5 C33.541 5.144 34.308 5.289 35.099 5.438 C37 6 37 6 39 8 C31.89 13.865 24.506 19.271 16.986 24.589 C13.392 27.142 9.822 29.728 6.25 32.312 C4.721 33.418 3.193 34.523 1.664 35.629 C1.281 35.906 1.281 35.906 -0.659 37.309 C-3.013 39.009 -5.369 40.706 -7.727 42.402 C-9.276 43.518 -10.826 44.634 -12.375 45.75 C-12.748 46.018 -12.748 46.018 -14.636 47.377 C-20.101 51.321 -25.482 55.364 -30.812 59.488 C-33 61 -33 61 -35 61 C-34.67 60.01 -34.34 59.02 -34 58 C-33.34 58 -32.68 58 -32 58 C-32 57.34 -32 56.68 -32 56 C-30.667 55 -29.333 54 -28 53 C-27.66 52.546 -27.66 52.546 -25.938 50.25 C-25.298 49.507 -24.659 48.765 -24 48 C-23.01 48.33 -22.02 48.66 -21 49 C-20.67 48.34 -20.34 47.68 -20 47 C-19.01 47 -18.02 47 -17 47 C-17 46.01 -17 45.02 -17 44 C-16.01 44 -15.02 44 -14 44 C-13.67 43.01 -13.34 42.02 -13 41 C-11.68 41 -10.36 41 -9 41 C-8.67 40.01 -8.34 39.02 -8 38 C-5.267 36.481 -2.505 35.213 0.375 34 C0.911 33.67 1.447 33.34 2 33 C2 32.01 2 31.02 2 30 C3.875 28.438 3.875 28.438 6 27 C6.66 26.34 7.32 25.68 8 25 C10.06 24.431 12.122 24.051 14.223 23.66 C14.809 23.442 15.396 23.224 16 23 C16.165 22.505 16.165 22.505 17 20 C18.594 18.902 18.594 18.902 20.5 17.938 C23.898 16.204 23.898 16.204 25 14 C26.641 12.959 28.307 11.955 30 11 C29.34 10.01 28.68 9.02 28 8 C27.34 8 26.68 8 26 8 C26 7.34 26 6.68 26 6 C23.829 5.513 23.829 5.513 20.82 5.184 C19.747 5.059 18.673 4.935 17.566 4.807 C16.431 4.685 15.295 4.563 14.125 4.438 C11.898 4.189 9.671 3.938 7.445 3.684 C6.45 3.576 5.455 3.468 4.43 3.357 C2 3 2 3 0 2 C0 1.34 0 0.68 0 0 Z " fill="#6ABBA5" transform="translate(254,214)"/><path d="M0 0 C0.66 0.33 1.32 0.66 2 1 C-4.453 12.463 -11.2 23.74 -18 35 C-18.33 34.34 -18.66 33.68 -19 33 C-19.66 33 -20.32 33 -21 33 C-21 32.01 -21 31.02 -21 30 C-20.34 30 -19.68 30 -19 30 C-19.375 27.062 -19.375 27.062 -20 24 C-20.66 23.67 -21.32 23.34 -22 23 C-22.988 20.246 -22.988 20.246 -23 17 C-21.059 14.951 -19.48 13.615 -17.188 12.062 C-16.597 11.639 -16.006 11.215 -15.397 10.778 C-14.19 9.916 -12.977 9.064 -11.757 8.221 C-10.142 7.099 -8.558 5.934 -6.977 4.766 C-2.039 1.145 -2.039 1.145 0 0 Z " fill="#458B9E" transform="translate(291,116)"/><path d="M0 0 C-1.29 1.376 -2.627 2.708 -4 4 C-4.66 4 -5.32 4 -6 4 C-6.33 4.66 -6.66 5.32 -7 6 C-7.99 6.33 -8.98 6.66 -10 7 C-11.379 8.629 -12.713 10.297 -14 12 C-16 14 -16 14 -18.625 15 C-19.409 15.33 -20.192 15.66 -21 16 C-21 16.66 -21 17.32 -21 18 C-22.688 20.125 -22.688 20.125 -25 22 C-25.784 21.979 -26.567 21.959 -27.375 21.938 C-31.425 22.034 -33.192 24.256 -36 27 C-36.33 27.99 -36.66 28.98 -37 30 C-38.654 30.697 -40.323 31.361 -42 32 C-42.474 32.474 -42.949 32.949 -43.438 33.438 C-45.632 35.632 -48.225 36.641 -51 38 C-52.359 38.965 -53.703 39.953 -55 41 C-55.7 39.174 -55.7 39.174 -56 37 C-54.747 35.559 -54.747 35.559 -52.793 34.223 C-52.07 33.716 -51.347 33.209 -50.603 32.687 C-49.806 32.151 -49.009 31.615 -48.188 31.062 C-46.518 29.9 -44.849 28.737 -43.18 27.574 C-42.318 26.982 -41.457 26.389 -40.569 25.779 C-36.608 23.036 -32.712 20.205 -28.812 17.375 C-28.073 16.844 -27.334 16.312 -26.572 15.765 C-22.915 13.135 -19.29 10.474 -15.711 7.738 C-15.371 7.481 -15.371 7.481 -13.653 6.18 C-12.38 5.213 -11.114 4.237 -9.857 3.25 C-6.477 0.695 -4.281 -0.602 0 0 Z " fill="#395792" transform="translate(231,163)"/></g>
  <text x="400" y="302" text-anchor="middle" font-family="Plus Jakarta Sans, Inter, sans-serif" font-weight="800" font-size="56">
    <tspan fill="#4CB999">Energy </tspan><tspan fill="#233F8C">C</tspan><tspan fill="#4CB999">abo</tspan>
  </text>
  <text x="400" y="337" text-anchor="middle" font-family="Plus Jakarta Sans, Inter, sans-serif" font-weight="700" font-size="18" fill="#4CB999" letter-spacing="4">SOLAR &amp; ENERGY SOLUTIONS</text>
</svg>